<?xml version="1.0" standalone="no"?>
<svg xmlns="http://www.w3.org/2000/svg" viewBox="0 0 124.729 36" width="124.729" height="36"><g fill="#d29494" color="#d29494" transform="translate(0 8.76) scale(0.5600001)"><svg width="50.0" height="33.0" x="0.0" y="0.0" viewBox="0 0 50 33"><path fill="currentColor" fill-rule="nonzero" d="M45.33 12.2c-1.87 0-4.38 2.2-5.56 3.32L24.99.74 24.8.56 10.03 15.33c-1.25-1.17-3.6-3.13-5.36-3.13-2.53 0-4.59 2.06-4.59 4.59s2.06 4.59 4.59 4.59c1.75 0 4.08-1.94 5.33-3.11l14.61 14.61.19.18 14.99-14.99c1.18 1.13 3.68 3.3 5.53 3.3 2.53 0 4.59-2.06 4.59-4.59s-2.06-4.58-4.58-4.58zm-34 4.45L24.8 3.18l13.63 13.63L24.8 30.44 11.31 16.95l.16-.16-.14-.14zm-2.63.3c-1.4 1.3-3.14 2.57-4.02 2.57-1.51 0-2.74-1.23-2.74-2.74 0-1.51 1.23-2.74 2.74-2.74.89 0 2.64 1.29 4.04 2.59l-.17.17.15.15zm39.36-.16c0 1.51-1.23 2.74-2.74 2.74-.92 0-2.74-1.34-4.2-2.74 1.42-1.35 3.28-2.74 4.2-2.74 1.51 0 2.74 1.23 2.74 2.74z"></path></svg></g><path fill="#182bc2" fill-rule="nonzero" d="M7.44 16.80Q5.21 16.80 3.52 15.72Q1.82 14.64 0.91 12.78Q0 10.92 0 8.64L0 8.64Q0 6.29 1.00 4.30Q1.99 2.30 3.71 1.15Q5.42 0 7.44 0L7.44 0Q9.36 0 10.81 0.54Q12.26 1.08 12.96 1.92L12.96 1.92Q13.37 2.42 13.46 3.25Q13.56 4.08 13.56 5.52L13.56 5.52L13.08 5.52Q12.62 3.19 11.40 2.08Q10.18 0.96 8.16 0.96L8.16 0.96Q5.57 0.96 3.98 2.78Q2.40 4.61 2.40 8.64L2.40 8.64Q2.40 10.54 3.01 12.17Q3.62 13.80 4.92 14.82Q6.22 15.84 8.16 15.84L8.16 15.84Q9.91 15.84 11.22 15Q12.53 14.16 13.56 12.48L13.56 12.48L14.04 12.84Q12.94 15 11.32 15.90Q9.70 16.80 7.44 16.80L7.44 16.80ZM19.32 16.56Q18.55 16.56 17.76 16.24Q16.97 15.91 16.40 15.17Q15.84 14.42 15.84 13.20L15.84 13.20Q15.84 11.38 17.53 10.61Q19.22 9.84 21.96 9.84L21.96 9.84L22.68 9.84Q22.68 7.49 22.03 6.62Q21.38 5.76 20.16 5.76L20.16 5.76Q19.08 5.76 18.43 6.22Q17.78 6.67 17.52 7.80L17.52 7.80L16.44 7.80Q16.44 6.98 16.54 6.52Q16.63 6.05 17.04 5.64L17.04 5.64Q17.47 5.21 18.47 5.00Q19.46 4.80 20.64 4.80L20.64 4.80Q22.58 4.80 23.71 5.84Q24.84 6.89 24.84 9.84L24.84 9.84L24.84 16.32L23.64 16.32L22.80 15.24L22.68 15.24Q22.25 15.79 21.41 16.18Q20.57 16.56 19.32 16.56L19.32 16.56ZM20.40 15.48Q21.19 15.48 21.72 15.10Q22.25 14.71 22.68 14.04L22.68 14.04L22.68 10.80L21.96 10.80Q20.18 10.80 19.15 11.46Q18.12 12.12 18.12 13.20L18.12 13.20Q18.12 14.30 18.78 14.89Q19.44 15.48 20.40 15.48L20.40 15.48ZM36.70 16.56Q34.66 16.56 33.22 14.64L33.22 14.64L30.34 10.80L30.34 16.32L28.18 16.32L28.18 3.36Q28.18 2.14 27.84 1.55Q27.50 0.96 26.50 0.96L26.50 0.96L26.02 0.96L26.02 0.48L28.18 0.48Q29.06 0.48 29.51 0.71Q29.95 0.94 30.14 1.54Q30.34 2.14 30.34 3.36L30.34 3.36L30.34 10.44L33.34 6.60Q33.96 5.83 34.66 5.44Q35.35 5.04 36.46 5.04L36.46 5.04L37.18 5.04L37.18 5.64Q36.53 5.64 35.93 5.90Q35.33 6.17 34.90 6.72L34.90 6.72L32.26 10.08L35.26 13.92Q35.95 14.83 36.56 15.29Q37.18 15.74 37.90 15.86L37.90 15.86L37.90 16.32Q37.37 16.56 36.70 16.56L36.70 16.56ZM43.34 16.56Q41.71 16.56 40.58 15.78Q39.46 15 38.88 13.67Q38.30 12.34 38.30 10.68L38.30 10.68Q38.30 9.05 38.88 7.70Q39.46 6.36 40.55 5.58Q41.64 4.80 43.10 4.80L43.10 4.80Q45.53 4.80 46.72 6.16Q47.90 7.51 47.90 10.08L47.90 10.08L47.86 11.04L40.58 11.04Q40.58 13.06 41.45 14.33Q42.31 15.60 43.82 15.60L43.82 15.60Q44.95 15.60 45.73 15.12Q46.51 14.64 47.18 13.68L47.18 13.68L47.66 14.04Q46.87 15.36 45.82 15.96Q44.76 16.56 43.34 16.56L43.34 16.56ZM40.58 10.08L45.62 10.08Q45.62 7.97 45 6.86Q44.38 5.76 43.10 5.76L43.10 5.76Q42.38 5.76 41.81 6.32Q41.23 6.89 40.91 7.87Q40.58 8.86 40.58 10.08L40.58 10.08ZM63.70 16.44Q62.54 16.44 61.42 15.80Q60.29 15.17 59.62 13.32L59.62 13.32L59.02 11.76L52.30 11.76L50.38 16.32L49.30 16.32L56.02 0.48L56.74 0.48L62.02 13.32Q62.62 14.71 63.14 15.23Q63.67 15.74 64.66 15.84L64.66 15.84L64.66 16.32Q64.22 16.44 63.70 16.44L63.70 16.44ZM55.66 3.84L52.66 10.80L58.54 10.80L55.66 3.84ZM66.10 20.88L66.10 7.92Q66.10 6.70 65.76 6.11Q65.42 5.52 64.42 5.52L64.42 5.52L63.94 5.52L63.94 5.04L66.10 5.04Q67.01 5.04 67.48 5.29Q67.94 5.54 68.14 6.12L68.14 6.12L68.26 6.12Q68.69 5.57 69.48 5.18Q70.27 4.80 71.50 4.80L71.50 4.80Q73.56 4.80 74.69 6.47Q75.82 8.14 75.82 10.68L75.82 10.68Q75.82 13.25 74.65 14.90Q73.49 16.56 71.26 16.56L71.26 16.56Q70.34 16.56 69.65 16.37Q68.95 16.18 68.26 15.84L68.26 15.84L68.26 20.88L66.10 20.88ZM70.54 15.60Q72.07 15.60 72.80 14.26Q73.54 12.91 73.54 10.68L73.54 10.68Q73.54 8.47 72.84 7.12Q72.14 5.76 70.78 5.76L70.78 5.76Q69.17 5.76 68.26 7.20L68.26 7.20L68.26 14.88Q68.98 15.22 69.50 15.41Q70.03 15.60 70.54 15.60L70.54 15.60ZM79.01 20.88L79.01 7.92Q79.01 6.70 78.67 6.11Q78.34 5.52 77.33 5.52L77.33 5.52L76.85 5.52L76.85 5.04L79.01 5.04Q79.92 5.04 80.39 5.29Q80.86 5.54 81.05 6.12L81.05 6.12L81.17 6.12Q81.60 5.57 82.39 5.18Q83.18 4.80 84.41 4.80L84.41 4.80Q86.47 4.80 87.60 6.47Q88.73 8.14 88.73 10.68L88.73 10.68Q88.73 13.25 87.56 14.90Q86.40 16.56 84.17 16.56L84.17 16.56Q83.26 16.56 82.56 16.37Q81.86 16.18 81.17 15.84L81.17 15.84L81.17 20.88L79.01 20.88ZM83.45 15.60Q84.98 15.60 85.72 14.26Q86.45 12.91 86.45 10.68L86.45 10.68Q86.45 8.47 85.75 7.12Q85.06 5.76 83.69 5.76L83.69 5.76Q82.08 5.76 81.17 7.20L81.17 7.20L81.17 14.88Q81.89 15.22 82.42 15.41Q82.94 15.60 83.45 15.60L83.45 15.60Z" transform="translate(36, 9.84)"></path></svg>